<svg aria-hidden="true" style="position: absolute; width: 0; height: 0; overflow: hidden;" version="1.1" xmlns="http://www.w3.org/2000/svg" xmlns:xlink="http://www.w3.org/1999/xlink">
<defs>
<symbol id="icon-commissions" viewBox="0 0 33 32">
<path fill="#42a5f5" style="fill: var(--color1, #42a5f5)" d="M15.993 32c-0.938 0-1.875-0.313-2.605-0.938l-2.352-2.024c-0.238-0.208-0.834-0.417-1.146-0.417h-2.56c-2.203 0-3.989-1.786-3.989-3.989v-2.545c0-0.313-0.208-0.893-0.417-1.131l-2.009-2.367c-1.22-1.444-1.22-3.721 0-5.165l2.009-2.366c0.208-0.238 0.417-0.819 0.417-1.131v-2.56c0-2.203 1.786-3.989 3.989-3.989h2.575c0.313 0 0.908-0.223 1.146-0.417l2.352-2.024c1.459-1.25 3.736-1.25 5.194 0l2.352 2.024c0.238 0.208 0.834 0.417 1.146 0.417h2.53c2.203 0 3.989 1.786 3.989 3.989v2.53c0 0.313 0.223 0.908 0.432 1.146l2.024 2.352c1.25 1.459 1.25 3.736 0 5.194l-2.024 2.352c-0.208 0.238-0.432 0.834-0.432 1.146v2.53c0 2.203-1.786 3.989-3.989 3.989h-2.53c-0.313 0-0.908 0.223-1.146 0.417l-2.352 2.024c-0.729 0.64-1.667 0.953-2.605 0.953zM7.33 5.611c-0.967 0-1.756 0.789-1.756 1.756v2.545c0 0.848-0.402 1.935-0.953 2.575l-2.009 2.366c-0.521 0.61-0.521 1.667 0 2.277l2.009 2.367c0.551 0.655 0.953 1.726 0.953 2.575v2.545c0 0.967 0.789 1.756 1.756 1.756h2.575c0.863 0 1.95 0.402 2.605 0.967l2.352 2.024c0.61 0.521 1.682 0.521 2.292 0l2.352-2.024c0.655-0.551 1.741-0.967 2.605-0.967h2.53c0.967 0 1.756-0.789 1.756-1.756v-2.53c0-0.863 0.402-1.95 0.967-2.605l2.024-2.352c0.521-0.61 0.521-1.682 0-2.292l-2.024-2.352c-0.566-0.655-0.967-1.741-0.967-2.605v-2.515c0-0.967-0.789-1.756-1.756-1.756h-2.53c-0.863 0-1.95-0.402-2.605-0.967l-2.352-2.024c-0.61-0.521-1.682-0.521-2.292 0l-2.352 2.039c-0.655 0.551-1.756 0.953-2.605 0.953h-2.575z"></path>
<path fill="#42a5f5" style="fill: var(--color1, #42a5f5)" d="M11.037 14.376v-0.568c0-0.408 0.090-0.779 0.269-1.113s0.444-0.602 0.792-0.804c0.349-0.201 0.777-0.302 1.286-0.302 0.523 0 0.959 0.101 1.308 0.302 0.354 0.202 0.618 0.469 0.792 0.804 0.179 0.334 0.269 0.705 0.269 1.113v0.568c0 0.398-0.090 0.764-0.269 1.099-0.174 0.334-0.436 0.602-0.785 0.804s-0.78 0.302-1.293 0.302c-0.518 0-0.954-0.101-1.308-0.302-0.349-0.201-0.613-0.469-0.792-0.804s-0.269-0.7-0.269-1.099zM12.465 13.808v0.568c0 0.172 0.032 0.337 0.097 0.494 0.070 0.152 0.174 0.278 0.314 0.376 0.144 0.093 0.319 0.14 0.523 0.14 0.214 0 0.389-0.047 0.523-0.14 0.135-0.098 0.234-0.224 0.299-0.376 0.065-0.157 0.097-0.322 0.097-0.494v-0.568c0-0.182-0.035-0.349-0.105-0.501-0.065-0.157-0.167-0.283-0.306-0.376-0.135-0.098-0.309-0.148-0.523-0.148-0.199 0-0.369 0.049-0.508 0.148-0.139 0.093-0.244 0.219-0.314 0.376-0.065 0.152-0.097 0.32-0.097 0.501zM16.239 20.414v-0.568c0-0.403 0.090-0.772 0.269-1.106 0.184-0.334 0.451-0.602 0.8-0.804 0.354-0.202 0.787-0.302 1.3-0.302 0.518 0 0.952 0.101 1.301 0.302s0.613 0.469 0.792 0.804c0.179 0.334 0.269 0.703 0.269 1.106v0.568c0 0.403-0.090 0.772-0.269 1.106-0.174 0.334-0.436 0.602-0.785 0.804s-0.78 0.302-1.293 0.302c-0.518 0-0.954-0.101-1.308-0.302s-0.623-0.469-0.807-0.804c-0.179-0.334-0.269-0.703-0.269-1.106zM17.674 19.847v0.568c0 0.177 0.040 0.344 0.12 0.501s0.189 0.283 0.329 0.376c0.144 0.093 0.311 0.14 0.501 0.14 0.239 0 0.426-0.047 0.561-0.14s0.227-0.219 0.277-0.376c0.055-0.157 0.082-0.324 0.082-0.501v-0.568c0-0.177-0.035-0.342-0.105-0.494-0.070-0.157-0.174-0.283-0.314-0.376-0.135-0.098-0.306-0.147-0.516-0.147s-0.384 0.049-0.523 0.147c-0.135 0.093-0.237 0.219-0.306 0.376-0.070 0.152-0.105 0.317-0.105 0.494zM19.139 13.277l-5.314 8.39-1.046-0.546 5.314-8.39 1.046 0.546z"></path>
<path fill="#42a5f5" style="fill: var(--color1, #42a5f5)" d="M12.465 13.808v0.568c0 0.172 0.032 0.337 0.097 0.494 0.070 0.152 0.174 0.278 0.314 0.376 0.144 0.093 0.319 0.14 0.523 0.14 0.214 0 0.389-0.047 0.523-0.14 0.135-0.098 0.234-0.224 0.299-0.376 0.065-0.157 0.097-0.322 0.097-0.494v-0.568c0-0.182-0.035-0.349-0.105-0.501-0.065-0.157-0.167-0.283-0.306-0.376-0.135-0.098-0.309-0.148-0.523-0.148-0.199 0-0.369 0.049-0.508 0.148-0.139 0.093-0.244 0.219-0.314 0.376-0.065 0.152-0.097 0.32-0.097 0.501z"></path>
<path fill="#42a5f5" style="fill: var(--color1, #42a5f5)" d="M17.674 19.847v0.568c0 0.177 0.040 0.344 0.12 0.501s0.189 0.283 0.329 0.376c0.144 0.093 0.311 0.14 0.501 0.14 0.239 0 0.426-0.047 0.561-0.14s0.227-0.219 0.277-0.376c0.055-0.157 0.082-0.324 0.082-0.501v-0.568c0-0.177-0.035-0.342-0.105-0.494-0.070-0.157-0.174-0.283-0.314-0.376-0.135-0.098-0.306-0.147-0.516-0.147s-0.384 0.049-0.523 0.147c-0.135 0.093-0.237 0.219-0.306 0.376-0.070 0.152-0.105 0.317-0.105 0.494z"></path>
</symbol>
<symbol id="icon-support" viewBox="0 0 39 32">
<path fill="#42a5f5" style="fill: var(--color1, #42a5f5)" d="M19.013 3.325c-6.436 0-11.638 5.201-11.638 11.638s5.201 11.638 11.638 11.638c6.436 0 11.638-5.201 11.638-11.638s-5.201-11.638-11.638-11.638zM19.013 4.318c0.575 0 1.135 0.048 1.686 0.133l-1.073 1.872-4.090 1.952-1.62 1.135-4.798 1.61c1.563-3.933 5.396-6.702 9.894-6.702zM25.758 23.204c-1.834 1.501-4.185 2.404-6.75 2.404-5.89 0-10.64-4.75-10.64-10.645 0-0.95 0.123-1.871 0.356-2.745l5.653-1.895 1.672-1.169 4.294-2.057 1.392-2.432c0.679 0.176 1.33 0.423 1.943 0.722v1.724l-1.173 1.834v2.323l-1.672 3.81 1.439 1.924h3.486v6.204zM26.77 22.264v-6.27h-3.99l-0.784-1.050 1.52-3.463v-2.242l1.173-1.829v-1.463c2.988 1.881 4.969 5.211 4.969 9.016 0 2.831-1.097 5.396-2.888 7.301z"></path>
<path fill="#42a5f5" style="fill: var(--color1, #42a5f5)" d="M26.77 22.264v-6.27h-3.99l-0.784-1.050 1.52-3.463v-2.242l1.173-1.829v-1.463c2.988 1.881 4.969 5.211 4.969 9.016 0 2.831-1.097 5.396-2.888 7.301z"></path>
<path fill="#42a5f5" style="fill: var(--color1, #42a5f5)" d="M19.013 4.318c0.575 0 1.135 0.048 1.686 0.133l-1.073 1.872-4.090 1.952-1.62 1.135-4.798 1.61c1.563-3.933 5.396-6.702 9.894-6.702z"></path>
<path fill="#42a5f5" style="fill: var(--color1, #42a5f5)" d="M13.712 13.524l-1.986 1.886v1.629l1.815 3.135 1.045 3.753 3.696-0.812 0.694-2.38 1.036-1.425v-2.508l-2.195-0.461-4.104-2.817zM19.008 18.986h-0.005l-0.945 1.297-0.575 1.976-2.18 0.48-0.826-2.959-1.743-3.012v-0.926l1.083-1.026 3.601 2.47 1.591 0.333v1.368z"></path>
<path fill="#42a5f5" style="fill: var(--color1, #42a5f5)" d="M19.008 18.986h-0.005l-0.945 1.297-0.575 1.976-2.18 0.48-0.826-2.959-1.743-3.012v-0.926l1.083-1.026 3.601 2.47 1.591 0.333v1.368z"></path>
<path fill="#42a5f5" style="fill: var(--color1, #42a5f5)" d="M18.442 29.083c0.006-1.229 1.004-2.223 2.234-2.223 1.234 0 2.234 1 2.234 2.234s-1 2.234-2.234 2.234c-0.942 0-1.748-0.583-2.076-1.408-0.001 0-0.002 0-0.003-0-6.784-0.186-12.441-4.887-14.072-11.206h-0.187c-2.396 0-4.338-1.942-4.338-4.338s1.942-4.338 4.338-4.338h0.542c2.036-5.845 7.595-10.039 14.134-10.039 6.299 0 11.69 3.893 13.896 9.404h0.62c2.483 0 4.497 2.013 4.497 4.497 0 2.337-1.789 4.284-4.118 4.481l-0.716 0.060-0.014-0.16c-0.217-0.038-0.366-0.254-0.32-0.479 0.187-0.918 0.285-1.867 0.285-2.84 0-7.805-6.327-14.132-14.132-14.132s-14.132 6.327-14.132 14.132c0 7.613 6.020 13.82 13.56 14.12zM33.769 17.246l0.043-0.004c1.736-0.147 3.071-1.599 3.071-3.342 0-1.852-1.502-3.354-3.354-3.354h-0.216c0.431 1.396 0.662 2.879 0.662 4.416 0 0.776-0.080 1.539-0.207 2.283zM4.532 11.181h-0.194c-1.764 0-3.195 1.43-3.195 3.195 0 1.744 1.397 3.162 3.134 3.194-0.149-0.847-0.226-1.718-0.226-2.608 0-1.306 0.167-2.574 0.482-3.781zM20.675 28.003c-0.602 0-1.091 0.489-1.091 1.091s0.489 1.091 1.091 1.091c0.603 0 1.091-0.489 1.091-1.091s-0.489-1.091-1.091-1.091z"></path>
</symbol>
<symbol id="icon-users" viewBox="0 0 47 32">
<path fill="#2196f3" style="fill: var(--color2, #2196f3); stroke: var(--color2, #2196f3)" stroke="#2196f3" stroke-linejoin="miter" stroke-linecap="butt" stroke-miterlimit="4" stroke-width="1.1429" d="M31.231 7.859c0 3.709-3.007 6.716-6.716 6.716s-6.716-3.007-6.716-6.716 3.007-6.716 6.716-6.716c3.709 0 6.716 3.007 6.716 6.716z"></path>
<path fill="#2196f3" style="fill: var(--color2, #2196f3); stroke: var(--color2, #2196f3)" stroke="#2196f3" stroke-linejoin="miter" stroke-linecap="butt" stroke-miterlimit="4" stroke-width="1.1429" d="M37.139 31.429h-25.25c0.299-6.714 5.837-12.066 12.625-12.066s12.326 5.352 12.625 12.066z"></path>
<path fill="none" stroke="#2196f3" style="stroke: var(--color2, #2196f3)" stroke-linejoin="miter" stroke-linecap="butt" stroke-miterlimit="4" stroke-width="1.1429" d="M42.909 9.481c0 1.133-0.919 2.052-2.052 2.052s-2.052-0.919-2.052-2.052 0.919-2.052 2.052-2.052c1.133 0 2.052 0.919 2.052 2.052z"></path>
<path fill="none" stroke="#2196f3" style="stroke: var(--color2, #2196f3)" stroke-linejoin="miter" stroke-linecap="butt" stroke-miterlimit="4" stroke-width="1.1429" d="M45.002 17.6h-8.29c0.279-2.040 2.028-3.612 4.145-3.612s3.867 1.572 4.145 3.612z"></path>
<path fill="none" stroke="#2196f3" style="stroke: var(--color2, #2196f3)" stroke-linejoin="miter" stroke-linecap="butt" stroke-miterlimit="4" stroke-width="1.1429" d="M7.709 9.481c0 1.133-0.919 2.052-2.052 2.052s-2.052-0.919-2.052-2.052c0-1.133 0.919-2.052 2.052-2.052s2.052 0.919 2.052 2.052z"></path>
<path fill="none" stroke="#2196f3" style="stroke: var(--color2, #2196f3)" stroke-linejoin="miter" stroke-linecap="butt" stroke-miterlimit="4" stroke-width="1.1429" d="M9.802 17.6h-8.29c0.279-2.040 2.028-3.612 4.145-3.612s3.866 1.572 4.145 3.612z"></path>
</symbol>
<symbol id="icon-visa" viewBox="0 0 45 32">
<path fill="#42a5f5" style="fill: var(--color1, #42a5f5)" d="M44.138 7.36h-43.034v5.363h43.034v-5.363z"></path>
<path fill="none" stroke="#42a5f5" style="stroke: var(--color1, #42a5f5)" stroke-linejoin="miter" stroke-linecap="butt" stroke-miterlimit="4" stroke-width="2.2069" d="M1.103 7.36v0c0-3.455 2.801-6.257 6.257-6.257h30.521c3.455 0 6.257 2.801 6.257 6.257v0M1.103 7.36h43.034M1.103 7.36v5.363M44.138 7.36v5.363M44.138 12.723v11.553c0 3.657-2.964 6.621-6.621 6.621h-29.793c-3.656 0-6.621-2.964-6.621-6.621v-11.553M44.138 12.723h-43.034"></path>
</symbol>
<symbol id="icon-loud-speaker" viewBox="0 0 59 54" fill="none" xmlns="http://www.w3.org/2000/svg">
<path fill-rule="evenodd" clip-rule="evenodd" d="M51.9507 31.3616C51.0334 25.9236 49.9586 19.712 48.9703 14.3088C48.5416 11.9653 48.1287 9.77076 47.7514 7.85571C51.1659 7.40096 54.3796 9.6637 55.0234 13.045L57.083 23.862C57.7436 27.3318 55.4495 30.6742 51.9507 31.3616ZM52.2461 33.1186C52.5492 34.9268 52.8305 36.6227 53.0799 38.1416L53.3052 39.5138L51.9485 39.1417L29.826 33.0745L25.7232 33.6501L27.5757 38.0266L25.8574 38.5844L23.8782 33.9089L14.5407 35.2187L16.8478 37.9598C19.7746 41.4371 20.9733 46.0242 20.1156 50.4653L19.864 51.7678L30.5949 49.7765L28.5938 45.0491L30.3122 44.4912L32.6884 50.105L33.118 51.1199L32.023 51.323L18.8971 53.7588L17.5971 54L17.8448 52.7172L18.3441 50.1319C19.1009 46.2132 18.0433 42.1658 15.4608 39.0976L12.4436 35.5129L9.42302 35.9366L8.5693 36.0564L8.41001 35.2197L8.39557 35.1439C4.70638 35.4048 1.30772 33.0555 0.308853 29.5196L2.20666 29.5276C3.11024 31.9098 5.47473 33.4726 8.05954 33.379L5.75986 21.3007C3.70196 22.0077 2.22212 23.7541 1.82733 25.8075L0 25.7998C0.427251 22.9061 2.50588 20.4272 5.42382 19.5358L5.238 18.5598L5.08222 17.7416L5.89872 17.5335L25.2431 12.6019L25.2274 12.5196L26.0086 12.3746C29.0033 10.4982 33.4183 7.70435 37.1929 5.25617C39.1247 4.00315 40.884 2.84381 42.1981 1.94554C42.856 1.49579 43.3953 1.1162 43.7865 0.825368C43.9827 0.679489 44.1339 0.561709 44.241 0.472183C44.3065 0.417486 44.3406 0.385438 44.3544 0.372514L44.3545 0.372474L44.3545 0.37245L44.3546 0.372369L44.3547 0.372217C44.3595 0.367757 44.3617 0.365679 44.3619 0.365829L44.3615 0.366548C44.4673 0.231682 44.6885 0.0272159 45.0433 0.0023927C45.3932 -0.0220985 45.6344 0.147521 45.7344 0.232828C45.9185 0.389765 46.016 0.592617 46.0522 0.668566C46.1535 0.88055 46.2507 1.17551 46.3444 1.49848C46.5384 2.16684 46.7751 3.16393 47.0421 4.39791C47.1558 4.92302 47.2756 5.49455 47.4008 6.10664C51.801 5.46161 55.9669 8.36267 56.7958 12.7162L58.8553 23.5331C59.7023 27.9817 56.745 32.2662 52.2461 33.1186ZM30.6681 31.4577L27.2841 13.684C30.273 11.8094 34.526 9.11608 38.1831 6.74411C40.1189 5.48854 41.8926 4.31988 43.2247 3.40921C43.8101 3.00899 44.3157 2.65494 44.7144 2.36323C44.8725 2.95814 45.0625 3.77112 45.2786 4.76983C45.8081 7.21713 46.4781 10.7026 47.1956 14.6252C48.5308 21.9246 50.0249 30.7074 51.0737 37.0541L30.6681 31.4577ZM28.8254 31.4167L25.577 14.3555L7.16611 19.0491L10.023 34.0542L28.8254 31.4167ZM44.4104 1.40764C44.4105 1.40717 44.4135 1.41224 44.4194 1.42425C44.4132 1.41411 44.4103 1.40811 44.4104 1.40764Z" fill="#4986EE"/>
</symbol>
<symbol id="icon-platform" viewBox="0 0 63 52" fill="none" xmlns="http://www.w3.org/2000/svg">
<path d="M31.0406 39.6245C30.7271 39.6245 30.418 39.7575 30.1956 39.988C29.9746 40.2185 29.8462 40.5372 29.8462 40.862C29.8462 41.1884 29.9746 41.507 30.1956 41.7375C30.418 41.968 30.7271 42.0995 31.0406 42.0995C31.3556 42.0995 31.6632 41.968 31.8857 41.7375C32.1081 41.507 32.235 41.1884 32.235 40.862C32.235 40.5372 32.1081 40.2185 31.8857 39.988C31.6632 39.7577 31.3556 39.6245 31.0406 39.6245Z" fill="#4986EE"/>
<path fill-rule="evenodd" clip-rule="evenodd" d="M62.1469 37.1211C62.1469 37.0415 62.139 36.964 62.1251 36.8885V6.18742C62.1251 2.77552 59.446 0 56.153 0H13.1467H5.9721C2.67908 0 0 2.77552 0 6.18742V39.6154C0 43.0272 2.67908 45.8028 5.9721 45.8028H21.5218V49.525H17.9145C17.2549 49.525 16.7201 50.0791 16.7201 50.7625C16.7201 51.4459 17.2549 52 17.9145 52H44.0411C44.7007 52 45.2355 51.4459 45.2355 50.7625C45.2355 50.0791 44.7007 49.525 44.0411 49.525H40.5712V45.8028H56.1528C59.4458 45.8028 62.1249 43.0272 62.1249 39.6154V37.3539C62.1388 37.2784 62.1469 37.2008 62.1469 37.1211ZM5.9721 2.47497H12.6516H16.03H56.1531C58.129 2.47497 59.7364 4.14031 59.7364 6.18742V35.8838H48.2762L44.8979 35.8836H2.38884V6.18742C2.38884 4.14031 3.99623 2.47497 5.9721 2.47497ZM38.1823 49.525H23.9106V45.8028H38.1823V49.525ZM56.153 43.3279H5.9721C3.99623 43.3279 2.38884 41.6625 2.38884 39.6154V38.3587H59.7362V39.6154C59.7362 41.6624 58.1287 43.3279 56.153 43.3279Z" fill="#4986EE"/>
<path d="M10 27.3846L13.7288 20.9459L18.0791 23.5214L20.565 20.9459L31.1299 27.3846L36.1017 19.6581L41.6949 21.5898L47.9096 13.2194L49.1525 10" stroke="#4986EE"/>
</symbol>
 <symbol id="icon-search" viewBox="0 0 56 56" fill="none" xmlns="http://www.w3.org/2000/svg">
<path fill-rule="evenodd" clip-rule="evenodd" d="M43.088 40.0739C44.017 38.9662 44.8467 37.7771 45.5665 36.5203C46.5078 34.8767 47.2612 33.1175 47.803 31.2735L45.8429 30.6976L45.8419 30.701C45.1889 32.9224 44.2007 35.0095 42.9266 36.8979C41.1666 39.5067 38.8608 41.7362 36.1391 43.4165C31.4462 46.3139 25.8478 47.374 20.4205 46.3931C14.9932 45.4122 10.1201 42.4594 6.73831 38.1027C3.35649 33.7459 1.70471 28.2927 2.10059 22.7917C2.49646 17.2907 4.91204 12.1302 8.88283 8.30258C12.8536 4.47495 18.0993 2.2504 23.6111 2.0567C29.123 1.86299 34.5119 3.71381 38.7416 7.25325C41.1946 9.306 43.1574 11.8427 44.5258 14.6766C45.5168 16.729 46.1961 18.9373 46.5242 21.2305L48.5465 20.9412L48.5461 20.9381C48.2738 19.0367 47.7803 17.1888 47.0844 15.4283C46.552 14.0814 45.9011 12.7857 45.1402 11.5564C43.7798 9.35847 42.0678 7.37288 40.0526 5.68653C35.4363 1.82362 29.555 -0.196343 23.5394 0.015064C17.5238 0.226471 11.7987 2.65432 7.46504 6.83177C3.13135 11.0092 0.495015 16.6413 0.0629626 22.6451C-0.36909 28.6489 1.43365 34.6004 5.12453 39.3553C8.81542 44.1102 14.1339 47.3328 20.0572 48.4034C25.9805 49.474 32.0905 48.317 37.2123 45.1548C39.4482 43.7744 41.4269 42.0544 43.088 40.0739ZM14.8576 21.7158H13.418H12.418V22.7158V34.8679V35.8679H13.418H14.8576V37.8138H16.8576V35.8679H18.2972H19.2972V34.8679V22.7158V21.7158H18.2972H16.8576V18.2969H14.8576V21.7158ZM14.418 23.7158V33.8679H15.8576H17.2972V23.7158H15.8576H14.418ZM23.1763 13.1772H24.6159V9.75831H26.6159V13.1772H28.0555H29.0555V14.1772V26.3293V27.3293H28.0555H26.6159V36.5941H24.6159V27.3293H23.1763H22.1763V26.3293V14.1772V13.1772H23.1763ZM24.1763 25.3293V15.1772H25.6159H27.0555V25.3293H25.6159H24.1763ZM33.1545 18.0566H31.7149H30.7149V19.0566V23.7863V24.7863H31.7149H33.1545V31.715H35.1545V24.7863H36.5941H37.5941V23.7863V19.0566V18.0566H36.5941H35.1545V14.6377H33.1545V18.0566ZM32.7149 20.0566V22.7863H34.1545H35.5941V20.0566H34.1545H32.7149ZM40.8925 43.7208L52.5745 55.5903L55.4253 52.7845L43.7433 40.915L40.8925 43.7208Z" fill="#4986EE"/>
</symbol>
<symbol id="icon-security" viewBox="0 0 52 56" fill="none" xmlns="http://www.w3.org/2000/svg">
<path d="M34.8588 39.6443H31.3496V52.405H49.5337V39.6443H46.6625M34.8588 39.6443V36.9326C34.8588 33.6731 37.5012 31.0308 40.7607 31.0308V31.0308C44.0201 31.0308 46.6625 33.6731 46.6625 36.9326V39.6443M34.8588 39.6443H46.6625" stroke="#4986EE" stroke-width="3"/>
<path d="M27.8405 54H9.99999C5.58171 54 2 50.4183 2 46V43.4724M36.135 26.5644V11.2515M36.135 11.2515V10C36.135 5.58173 32.5532 2 28.135 2H10C5.58172 2 2 5.58172 2 10V43.4724M36.135 11.2515H6.46626M2 43.4724H27.8405M18.2699 48.5767H22.0982" stroke="#4986EE" stroke-width="3"/>
<path d="M42.6535 44.8712C42.6535 46.1807 41.5919 47.2423 40.2823 47.2423C38.9727 47.2423 37.9111 46.1807 37.9111 44.8712C37.9111 43.5616 38.9727 42.5 40.2823 42.5C41.5919 42.5 42.6535 43.5616 42.6535 44.8712Z" stroke="#4986EE"/>
<path d="M40.5 49.9419V47.4419" stroke="#4986EE"/>
<circle cx="19.5457" cy="21.7791" r="5.10429" fill="#4986EE"/>
<path fill-rule="evenodd" clip-rule="evenodd" d="M28.1836 35.1781H11.2515C11.9995 31.1829 15.5054 28.1597 19.7175 28.1597C23.9296 28.1597 27.4356 31.1829 28.1836 35.1781Z" fill="#4986EE"/>
</symbol>
<symbol id="icon-stack" viewBox="0 0 65 54" fill="none" xmlns="http://www.w3.org/2000/svg">
<path d="M49.9872 27.7386C49.9872 41.6867 38.9 52.9772 25.2436 52.9772C11.5872 52.9772 0.5 41.6867 0.5 27.7386C0.5 13.7905 11.5872 2.5 25.2436 2.5C38.9 2.5 49.9872 13.7905 49.9872 27.7386Z" stroke="#4986EE"/>
<path d="M24.2726 47.0438V52.4885M35.438 50.5086L33.0107 45.5589M43.6907 45.0639L39.3216 40.6092M49.0307 36.1544L43.2053 34.1745M50 26.7499H44.1762M47.0889 15.8605L41.7489 18.8303M40.2925 7.94094L36.4089 12.8907M29.1271 2.99121L28.1562 9.42586M16.0199 3.98116L18.4471 10.9108M5.33989 12.8907L11.1653 17.3454M0.485352 26.2549L7.2817 26.7499M8.73806 36.1544L2.91262 38.1343M11.1653 48.0337L14.5635 43.579" stroke="#4986EE" stroke-width="3"/>
<path d="M26.1265 20.6489V22.9536H24.9078V20.6489H26.1265ZM25.9781 33.4067V35.5083H24.7593V33.4067H25.9781ZM26.8374 30.8442C26.8374 30.5474 26.7828 30.2948 26.6734 30.0864C26.5692 29.8781 26.3973 29.6932 26.1578 29.5317C25.9234 29.3703 25.6057 29.214 25.2046 29.063C24.5275 28.8026 23.9312 28.5265 23.4156 28.2349C22.9052 27.938 22.5067 27.5708 22.2203 27.1333C21.9338 26.6906 21.7906 26.1307 21.7906 25.4536C21.7906 24.8078 21.9442 24.2479 22.2515 23.7739C22.5588 23.3 22.9833 22.9354 23.5249 22.6802C24.0718 22.4198 24.7072 22.2896 25.4312 22.2896C25.9833 22.2896 26.4833 22.3729 26.9312 22.5396C27.3791 22.701 27.7645 22.9406 28.0874 23.2583C28.4104 23.5708 28.6578 23.9536 28.8296 24.4067C29.0015 24.8599 29.0874 25.3781 29.0874 25.9614H26.8453C26.8453 25.6489 26.8114 25.3729 26.7437 25.1333C26.676 24.8937 26.577 24.6932 26.4468 24.5317C26.3218 24.3703 26.1708 24.2505 25.9937 24.1724C25.8166 24.089 25.6213 24.0474 25.4078 24.0474C25.09 24.0474 24.8296 24.1099 24.6265 24.2349C24.4234 24.3599 24.2749 24.5291 24.1812 24.7427C24.0927 24.951 24.0484 25.1906 24.0484 25.4614C24.0484 25.7271 24.0953 25.9588 24.189 26.1567C24.288 26.3547 24.4572 26.5369 24.6968 26.7036C24.9364 26.8651 25.2645 27.0317 25.6812 27.2036C26.3583 27.464 26.952 27.7453 27.4624 28.0474C27.9729 28.3494 28.3713 28.7192 28.6578 29.1567C28.9442 29.5942 29.0874 30.1515 29.0874 30.8286C29.0874 31.5005 28.9312 32.0734 28.6187 32.5474C28.3062 33.0161 27.8687 33.3755 27.3062 33.6255C26.7437 33.8703 26.0927 33.9927 25.3531 33.9927C24.8739 33.9927 24.3973 33.9302 23.9234 33.8052C23.4494 33.675 23.0197 33.4666 22.6343 33.1802C22.2489 32.8937 21.9416 32.5135 21.7124 32.0396C21.4833 31.5604 21.3687 30.9718 21.3687 30.2739H23.6187C23.6187 30.6541 23.6682 30.9718 23.7671 31.2271C23.8661 31.4771 23.9963 31.6776 24.1578 31.8286C24.3244 31.9744 24.5119 32.0786 24.7203 32.1411C24.9286 32.2036 25.1395 32.2349 25.3531 32.2349C25.6864 32.2349 25.9598 32.175 26.1734 32.0552C26.3921 31.9354 26.5562 31.7713 26.6656 31.563C26.7802 31.3494 26.8374 31.1099 26.8374 30.8442Z" fill="#4986EE"/>
<path d="M44.1618 28.2336C44.1618 38.628 35.9001 47.0376 25.7291 47.0376C15.5581 47.0376 7.29639 38.628 7.29639 28.2336C7.29639 17.8393 15.5581 9.42969 25.7291 9.42969C35.9001 9.42969 44.1618 17.8393 44.1618 28.2336Z" stroke="#4986EE"/>
<path fill-rule="evenodd" clip-rule="evenodd" d="M44.8186 49.4536C56.0865 47.2315 64.5988 37.1288 64.6181 24.9954H64.6187V22.9954H64.5438C63.564 10.1292 53.0141 0 40.1439 0C37.7107 0 35.3604 0.362034 33.1421 1.03615C33.7442 1.20334 34.3383 1.38979 34.9237 1.59481C36.603 1.20551 38.3502 1 40.1439 1C41.0653 1 41.9744 1.05423 42.8684 1.15975L42.2254 5.42118C42.8473 5.87264 43.4502 6.34863 44.0328 6.84773L44.8427 1.48033C48.1002 2.15604 51.1142 3.52044 53.7312 5.41889L50.4352 9.61963C48.5946 8.42887 46.5318 7.563 44.3245 7.10111C44.8469 7.56097 45.3523 8.03965 45.8396 8.5361C52.863 10.7973 57.9705 17.4964 57.9705 25.4343C57.9705 30.7185 55.7072 35.4537 52.1221 38.6962C51.8652 39.3664 51.5838 40.0245 51.2788 40.6693C52.1063 40.0661 52.8826 39.3945 53.5997 38.6627L56.7549 41.8798C55.0149 43.6575 53.0028 45.1573 50.7885 46.3089L49.5543 43.7922C49.1437 44.4367 48.7079 45.0636 48.2483 45.6715L48.9756 47.1545C48.0714 47.5294 47.1393 47.8485 46.1834 48.1076C45.7436 48.5713 45.2884 49.0203 44.8186 49.4536ZM56.0151 15.2463C54.9362 13.5544 53.5965 12.0514 52.054 10.7965L55.299 6.66078C57.3141 8.4005 59.0383 10.4809 60.3859 12.8155L56.0151 15.2463ZM58.8161 22.9954C58.5433 20.8586 57.9171 18.8349 56.9991 16.9875L61.313 14.5883C62.5279 17.167 63.3037 20.0028 63.5408 22.9954H58.8161ZM58.9705 25.4343C58.9705 25.2876 58.9689 25.1413 58.9656 24.9954H63.6181C63.6141 27.3826 63.2684 29.6869 62.6282 31.8605L58.3186 30.3958C58.7436 28.8157 58.9705 27.152 58.9705 25.4343ZM54.9244 37.1572C56.0739 35.7004 57.0137 34.0645 57.6973 32.297L61.9841 33.7539C61.042 36.187 59.7208 38.4242 58.0953 40.3902L54.9244 37.1572Z" fill="#4986EE"/>
</symbol>
<symbol  id="icon-cards" viewBox="0 0 77 56" fill="none" xmlns="http://www.w3.org/2000/svg">
<path d="M2 24.75V45C2 49.9706 6.02943 54 11 54H30.644H50.2879C55.2585 54 59.2879 49.9706 59.2879 45V24.75M2 24.75V22C2 18.134 5.13401 15 9 15H52.2879C56.1539 15 59.2879 18.134 59.2879 22V24.75M2 24.75H59.2879" stroke="#4986EE" stroke-width="3"/>
<path d="M8 30H12.8728M16.2969 30H21.5647M24.9888 30H29.9933" stroke="#4986EE" stroke-width="3"/>
<path d="M21 8V7C21 4.23858 23.2386 2 26 2H70.5C73.2614 2 75.5 4.23858 75.5 7V36.5C75.5 39.2614 73.2614 41.5 70.5 41.5H64" stroke="#4986EE" stroke-width="3"/>
<path d="M75.5 8.5H19.5M74.5 15H61.5" stroke="#4986EE" stroke-width="3"/>
</symbol>
<symbol id="icon-checkmark" viewBox="0 0 23 16" fill="none" xmlns="http://www.w3.org/2000/svg">
<path fill-rule="evenodd" clip-rule="evenodd" d="M22.2928 2.21947L8.93217 15.5801L0.515625 7.16358L2.63695 5.04226L8.93217 11.3375L20.1715 0.0981445L22.2928 2.21947Z" fill="#4CD7AB"/>
</symbol>
</defs>
</svg>
