<svg aria-hidden="true" style="position:absolute;width:0;height:0;overflow:hidden" xmlns="http://www.w3.org/2000/svg"><defs><symbol id="icon-platform" viewBox="0 0 63 52" fill="none" xmlns="http://www.w3.org/2000/svg"><path d="M31.04 39.624c-.313 0-.622.133-.844.364-.221.23-.35.55-.35.874 0 .326.129.645.35.875.222.231.531.362.845.362.315 0 .622-.131.845-.361a1.269 1.269 0 0 0 0-1.75 1.184 1.184 0 0 0-.845-.364z" fill="#4986EE"/><path fill-rule="evenodd" clip-rule="evenodd" d="M62.147 37.121c0-.08-.008-.157-.022-.233v-30.7C62.125 2.775 59.446 0 56.153 0H5.972C2.68 0 0 2.776 0 6.187v33.428c0 3.412 2.68 6.188 5.972 6.188h15.55v3.722h-3.607c-.66 0-1.195.554-1.195 1.238 0 .683.535 1.237 1.195 1.237H44.04c.66 0 1.195-.554 1.195-1.237 0-.684-.535-1.238-1.195-1.238h-3.47v-3.722h15.582c3.293 0 5.972-2.776 5.972-6.188v-2.261c.014-.076.022-.153.022-.233zM5.972 2.475h50.181c1.976 0 3.583 1.665 3.583 3.712v29.697H2.388V6.187c0-2.047 1.608-3.712 3.584-3.712zm32.21 47.05H23.911v-3.722h14.271v3.722zm17.971-6.197H5.973c-1.977 0-3.584-1.666-3.584-3.713V38.36h57.347v1.256c0 2.047-1.607 3.713-3.583 3.713z" fill="#4986EE"/><path d="m10 27.385 3.729-6.44 4.35 2.576 2.486-2.575 10.565 6.439 4.972-7.727 5.593 1.932 6.215-8.37L49.153 10" stroke="#4986EE"/></symbol><symbol id="icon-commissions" viewBox="0 0 33 32"><path fill="#42a5f5" style="fill:var(--color1, #42a5f5)" d="M15.993 32c-.938 0-1.875-.313-2.605-.938l-2.352-2.024c-.238-.208-.834-.417-1.146-.417H7.33a3.99 3.99 0 0 1-3.989-3.989v-2.545c0-.313-.208-.893-.417-1.131L.915 18.589c-1.22-1.444-1.22-3.721 0-5.165l2.009-2.366c.208-.238.417-.819.417-1.131v-2.56A3.99 3.99 0 0 1 7.33 3.378h2.575c.313 0 .908-.223 1.146-.417L13.403.937c1.459-1.25 3.736-1.25 5.194 0l2.352 2.024c.238.208.834.417 1.146.417h2.53a3.99 3.99 0 0 1 3.989 3.989v2.53c0 .313.223.908.432 1.146l2.024 2.352c1.25 1.459 1.25 3.736 0 5.194l-2.024 2.352c-.208.238-.432.834-.432 1.146v2.53a3.99 3.99 0 0 1-3.989 3.989h-2.53c-.313 0-.908.223-1.146.417l-2.352 2.024c-.729.64-1.667.953-2.605.953zM7.33 5.611a1.76 1.76 0 0 0-1.756 1.756v2.545c0 .848-.402 1.935-.953 2.575l-2.009 2.366c-.521.61-.521 1.667 0 2.277l2.009 2.367c.551.655.953 1.726.953 2.575v2.545a1.76 1.76 0 0 0 1.756 1.756h2.575c.863 0 1.95.402 2.605.967l2.352 2.024c.61.521 1.682.521 2.292 0l2.352-2.024c.655-.551 1.741-.967 2.605-.967h2.53a1.76 1.76 0 0 0 1.756-1.756v-2.53c0-.863.402-1.95.967-2.605l2.024-2.352c.521-.61.521-1.682 0-2.292l-2.024-2.352c-.566-.655-.967-1.741-.967-2.605V7.366a1.76 1.76 0 0 0-1.756-1.756h-2.53c-.863 0-1.95-.402-2.605-.967l-2.352-2.024c-.61-.521-1.682-.521-2.292 0L12.51 4.658c-.655.551-1.756.953-2.605.953H7.33z"/><path fill="#42a5f5" style="fill:var(--color1, #42a5f5)" d="M11.037 14.376v-.568c0-.408.09-.779.269-1.113s.444-.602.792-.804c.349-.201.777-.302 1.286-.302.523 0 .959.101 1.308.302.354.202.618.469.792.804.179.334.269.705.269 1.113v.568c0 .398-.09.764-.269 1.099-.174.334-.436.602-.785.804s-.78.302-1.293.302c-.518 0-.954-.101-1.308-.302-.349-.201-.613-.469-.792-.804s-.269-.7-.269-1.099zm1.428-.568v.568c0 .172.032.337.097.494.07.152.174.278.314.376.144.093.319.14.523.14a.9.9 0 0 0 .523-.14.887.887 0 0 0 .299-.376 1.28 1.28 0 0 0 .097-.494v-.568c0-.182-.035-.349-.105-.501a.82.82 0 0 0-.306-.376.868.868 0 0 0-.523-.148.869.869 0 0 0-.822.524c-.065.152-.097.32-.097.501zm3.774 6.606v-.568c0-.403.09-.772.269-1.106a2.08 2.08 0 0 1 .8-.804c.354-.202.787-.302 1.3-.302.518 0 .952.101 1.301.302s.613.469.792.804c.179.334.269.703.269 1.106v.568c0 .403-.09.772-.269 1.106-.174.334-.436.602-.785.804s-.78.302-1.293.302c-.518 0-.954-.101-1.308-.302s-.623-.469-.807-.804a2.305 2.305 0 0 1-.269-1.106zm1.435-.567v.568c0 .177.04.344.12.501s.189.283.329.376c.144.093.311.14.501.14.239 0 .426-.047.561-.14s.227-.219.277-.376c.055-.157.082-.324.082-.501v-.568c0-.177-.035-.342-.105-.494a.862.862 0 0 0-.314-.376c-.135-.098-.306-.147-.516-.147s-.384.049-.523.147a.872.872 0 0 0-.306.376c-.07.152-.105.317-.105.494zm1.465-6.57-5.314 8.39-1.046-.546 5.314-8.39 1.046.546z"/><path fill="#42a5f5" style="fill:var(--color1, #42a5f5)" d="M12.465 13.808v.568c0 .172.032.337.097.494.07.152.174.278.314.376.144.093.319.14.523.14a.9.9 0 0 0 .523-.14.887.887 0 0 0 .299-.376 1.28 1.28 0 0 0 .097-.494v-.568c0-.182-.035-.349-.105-.501a.82.82 0 0 0-.306-.376.868.868 0 0 0-.523-.148.869.869 0 0 0-.822.524c-.065.152-.097.32-.097.501zM17.674 19.847v.568c0 .177.04.344.12.501s.189.283.329.376c.144.093.311.14.501.14.239 0 .426-.047.561-.14s.227-.219.277-.376c.055-.157.082-.324.082-.501v-.568c0-.177-.035-.342-.105-.494a.862.862 0 0 0-.314-.376c-.135-.098-.306-.147-.516-.147s-.384.049-.523.147a.872.872 0 0 0-.306.376c-.07.152-.105.317-.105.494z"/></symbol><symbol id="icon-users" viewBox="0 0 47 32"><path fill="#2196f3" style="fill:var(--color2, #2196f3);stroke:var(--color2, #2196f3)" stroke="#2196f3" stroke-width="1.143" d="M31.231 7.859a6.716 6.716 0 1 1-13.432 0 6.716 6.716 0 0 1 13.432 0zM37.139 31.429h-25.25c.299-6.714 5.837-12.066 12.625-12.066s12.326 5.352 12.625 12.066z"/><path fill="none" stroke="#2196f3" style="stroke:var(--color2, #2196f3)" stroke-width="1.143" d="M42.909 9.481a2.052 2.052 0 1 1-4.105 0 2.052 2.052 0 0 1 4.105 0zM45.002 17.6h-8.29a4.185 4.185 0 0 1 8.29 0zM7.709 9.481a2.052 2.052 0 1 1-4.105 0 2.052 2.052 0 0 1 4.105 0zM9.802 17.6h-8.29a4.185 4.185 0 0 1 8.29 0z"/></symbol><symbol id="icon-visa" viewBox="0 0 45 32"><path fill="#42a5f5" style="fill:var(--color1, #42a5f5)" d="M44.138 7.36H1.104v5.363h43.034V7.36z"/><path fill="none" stroke="#42a5f5" style="stroke:var(--color1, #42a5f5)" stroke-width="2.207" d="M1.103 7.36A6.257 6.257 0 0 1 7.36 1.103h30.521a6.257 6.257 0 0 1 6.257 6.257m-43.035 0h43.034m-43.034 0v5.363M44.138 7.36v5.363m0 0v11.553a6.62 6.62 0 0 1-6.621 6.621H7.724a6.621 6.621 0 0 1-6.621-6.621V12.723m43.035 0H1.104"/></symbol><symbol id="icon-loud-speaker" viewBox="0 0 59 54" fill="none" xmlns="http://www.w3.org/2000/svg"><path fill-rule="evenodd" clip-rule="evenodd" d="M51.95 31.362c-.917-5.438-1.991-11.65-2.98-17.053a494.272 494.272 0 0 0-1.219-6.453c3.415-.455 6.629 1.808 7.272 5.189l2.06 10.817c.66 3.47-1.633 6.812-5.132 7.5zm.296 1.757c.303 1.808.584 3.504.834 5.023l.225 1.372-1.356-.372-22.123-6.068-4.103.576 1.853 4.377-1.719.557-1.979-4.675-9.337 1.31 2.307 2.74a14.992 14.992 0 0 1 3.268 12.506l-.252 1.303 10.73-1.992-2-4.727 1.718-.558 2.376 5.614.43 1.015-1.095.203-13.126 2.436-1.3.241.248-1.283.5-2.585c.756-3.919-.302-7.966-2.884-11.034l-3.017-3.585-3.021.424-.854.12-.159-.837-.014-.076c-3.69.26-7.088-2.088-8.087-5.624l1.898.008c.903 2.382 3.268 3.945 5.853 3.851l-2.3-12.078a5.977 5.977 0 0 0-3.933 4.507L0 25.8c.427-2.894 2.506-5.373 5.424-6.264l-.186-.976-.156-.818.817-.209 19.344-4.931-.016-.082.782-.145c2.994-1.877 7.41-4.67 11.184-7.119a265.314 265.314 0 0 0 5.005-3.31c.658-.45 1.197-.83 1.588-1.12.197-.147.348-.264.455-.354.066-.055.1-.087.113-.1l.008-.006a.947.947 0 0 1 1.372-.133c.184.157.282.36.318.436.102.212.199.507.292.83.194.668.431 1.665.698 2.899.114.525.234 1.097.359 1.709 4.4-.645 8.566 2.256 9.395 6.61l2.06 10.816c.846 4.449-2.111 8.733-6.61 9.586zm-21.578-1.661-3.384-17.774a915.5 915.5 0 0 0 10.9-6.94 266.299 266.299 0 0 0 5.04-3.335c.586-.4 1.092-.754 1.49-1.046.159.595.349 1.408.565 2.407.53 2.447 1.2 5.933 1.917 9.855 1.335 7.3 2.829 16.082 3.878 22.43l-20.406-5.597zm-1.843-.041-3.248-17.062-18.41 4.694 2.856 15.005 18.802-2.637zM44.41 1.407a.1.1 0 0 1 .01.017.101.101 0 0 1-.01-.016z" fill="#4986EE"/></symbol><symbol id="icon-support" viewBox="0 0 39 32"><path fill="#42a5f5" style="fill:var(--color1, #42a5f5)" d="M19.013 3.325c-6.436 0-11.638 5.201-11.638 11.638s5.201 11.638 11.638 11.638c6.436 0 11.638-5.201 11.638-11.638S25.45 3.325 19.013 3.325zm0 .993c.575 0 1.135.048 1.686.133l-1.073 1.872-4.09 1.952-1.62 1.135-4.798 1.61a10.628 10.628 0 0 1 9.894-6.702zm6.745 18.886a10.622 10.622 0 0 1-6.75 2.404c-5.89 0-10.64-4.75-10.64-10.645 0-.95.123-1.871.356-2.745l5.653-1.895 1.672-1.169 4.294-2.057 1.392-2.432c.679.176 1.33.423 1.943.722v1.724l-1.173 1.834v2.323l-1.672 3.81 1.439 1.924h3.486v6.204zm1.012-.94v-6.27h-3.99l-.784-1.05 1.52-3.463V9.239l1.173-1.829V5.947a10.626 10.626 0 0 1 4.969 9.016c0 2.831-1.097 5.396-2.888 7.301z"/><path fill="#42a5f5" style="fill:var(--color1, #42a5f5)" d="M26.77 22.264v-6.27h-3.99l-.784-1.05 1.52-3.463V9.239l1.173-1.829V5.947a10.626 10.626 0 0 1 4.969 9.016c0 2.831-1.097 5.396-2.888 7.301zM19.013 4.318c.575 0 1.135.048 1.686.133l-1.073 1.872-4.09 1.952-1.62 1.135-4.798 1.61a10.628 10.628 0 0 1 9.894-6.702zM13.712 13.524l-1.986 1.886v1.629l1.815 3.135 1.045 3.753 3.696-.812.694-2.38 1.036-1.425v-2.508l-2.195-.461-4.104-2.817zm5.296 5.462h-.005l-.945 1.297-.575 1.976-2.18.48-.826-2.959-1.743-3.012v-.926l1.083-1.026 3.601 2.47 1.591.333v1.368z"/><path fill="#42a5f5" style="fill:var(--color1, #42a5f5)" d="M19.008 18.986h-.005l-.945 1.297-.575 1.976-2.18.48-.826-2.959-1.743-3.012v-.926l1.083-1.026 3.601 2.47 1.591.333v1.368z"/><path fill="#42a5f5" style="fill:var(--color1, #42a5f5)" d="M18.442 29.083a2.234 2.234 0 1 1 .158.837h-.003c-6.784-.186-12.441-4.887-14.072-11.206h-.187a4.338 4.338 0 1 1 0-8.676h.542C6.916 4.193 12.475-.001 19.014-.001c6.299 0 11.69 3.893 13.896 9.404h.62a4.497 4.497 0 0 1 .379 8.978l-.716.06-.014-.16a.403.403 0 0 1-.32-.479c.187-.918.285-1.867.285-2.84C33.144 7.157 26.817.83 19.012.83S4.88 7.157 4.88 14.962c0 7.613 6.02 13.82 13.56 14.12zm15.327-11.837.043-.004a3.354 3.354 0 0 0-.283-6.696h-.216c.431 1.396.662 2.879.662 4.416 0 .776-.08 1.539-.207 2.283zM4.532 11.181h-.194a3.195 3.195 0 0 0-.061 6.389 15.04 15.04 0 0 1-.226-2.608c0-1.306.167-2.574.482-3.781zm16.143 16.822a1.092 1.092 0 1 0 .001 2.183 1.092 1.092 0 0 0-.001-2.183z"/></symbol><symbol id="icon-search" viewBox="0 0 56 56" fill="none" xmlns="http://www.w3.org/2000/svg"><path fill-rule="evenodd" clip-rule="evenodd" d="M43.088 40.074a24.406 24.406 0 0 0 4.715-8.8l-1.96-.576-.001.003a22.346 22.346 0 0 1-9.703 12.715 22.353 22.353 0 1 1 10.385-22.185l2.023-.29v-.003a24.393 24.393 0 0 0-8.494-15.251 24.396 24.396 0 1 0 3.035 34.387zm-28.23-18.358h-2.44v14.152h2.44v1.946h2v-1.946h2.44V21.716h-2.44v-3.42h-2v3.42zm-.44 2v10.152h2.88V23.716h-2.88zm8.758-10.539h1.44V9.758h2v3.42h2.44v14.151h-2.44v9.265h-2V27.33h-2.44V13.177h1zm1 12.152V15.177h2.88V25.33h-2.88zm8.979-7.272h-2.44v6.73h2.44v6.928h2v-6.929h2.44v-6.73h-2.44v-3.418h-2v3.419zm-.44 2v2.73h2.88v-2.73h-2.88zm8.177 23.664 11.682 11.87 2.851-2.806-11.682-11.87-2.85 2.806z" fill="#4986EE"/></symbol><symbol id="icon-security" viewBox="0 0 52 56" fill="none" xmlns="http://www.w3.org/2000/svg"><path d="M34.859 39.644h-3.51v12.761h18.185v-12.76h-2.871m-11.804 0v-2.712a5.902 5.902 0 0 1 11.804 0v2.711m-11.804 0h11.803M27.84 54H10a8 8 0 0 1-8-8v-2.528m34.135-16.908V11.251m0 0V10a8 8 0 0 0-8-8H10a8 8 0 0 0-8 8v33.472m34.135-32.22H6.466M2 43.471h25.84m-9.57 5.105h3.828" stroke="#4986EE" stroke-width="3"/><path d="M42.654 44.871a2.371 2.371 0 1 1-4.743 0 2.371 2.371 0 0 1 4.742 0zM40.5 49.942v-2.5" stroke="#4986EE"/><circle cx="19.546" cy="21.779" r="5.104" fill="#4986EE"/><path fill-rule="evenodd" clip-rule="evenodd" d="M28.184 35.178H11.25a8.616 8.616 0 0 1 16.933 0z" fill="#4986EE"/></symbol><symbol id="icon-stack" viewBox="0 0 65 54" fill="none" xmlns="http://www.w3.org/2000/svg"><path d="M49.987 27.739c0 13.948-11.087 25.238-24.743 25.238C11.587 52.977.5 41.687.5 27.74.5 13.79 11.587 2.5 25.244 2.5c13.656 0 24.743 11.29 24.743 25.239z" stroke="#4986EE"/><path d="M24.273 47.044v5.445m11.165-1.98-2.427-4.95m10.68-.495-4.37-4.455m9.71-4.455-5.826-1.98M50 26.75h-5.824m2.913-10.89-5.34 2.97M40.292 7.94l-3.883 4.95m-7.282-9.899-.97 6.435M16.02 3.98l2.427 6.93M5.34 12.89l5.825 4.454m-10.68 8.91 6.797.495m1.456 9.404-5.825 1.98m8.252 9.9 3.399-4.455" stroke="#4986EE" stroke-width="3"/><path d="M26.127 20.649v2.305h-1.22v-2.305h1.22zm-.149 12.758v2.101H24.76v-2.101h1.22zm.86-2.563c0-.297-.055-.55-.165-.758a1.48 1.48 0 0 0-.515-.554 4.506 4.506 0 0 0-.953-.469 13.456 13.456 0 0 1-1.79-.828c-.51-.297-.908-.664-1.195-1.102-.286-.442-.43-1.002-.43-1.68 0-.645.154-1.205.462-1.68a3.007 3.007 0 0 1 1.273-1.093c.547-.26 1.182-.39 1.906-.39.552 0 1.052.083 1.5.25.448.161.834.4 1.156.718.323.313.57.696.743 1.149.172.453.257.971.257 1.554h-2.242c0-.312-.034-.588-.101-.828a1.67 1.67 0 0 0-.297-.601 1.16 1.16 0 0 0-.453-.36 1.358 1.358 0 0 0-.586-.125c-.318 0-.578.063-.782.188a1.107 1.107 0 0 0-.445.508 1.824 1.824 0 0 0-.133.718c0 .266.047.498.141.696.099.198.268.38.508.547.24.161.568.328.984.5.677.26 1.271.541 1.781.843.51.302.91.672 1.196 1.11.286.437.43.994.43 1.672 0 .671-.157 1.244-.47 1.718-.312.47-.75.829-1.312 1.079-.562.244-1.213.367-1.953.367-.48 0-.956-.063-1.43-.188a3.851 3.851 0 0 1-1.289-.625 3.04 3.04 0 0 1-.922-1.14c-.229-.48-.343-1.068-.343-1.766h2.25c0 .38.05.698.148.953.1.25.23.45.39.602a1.5 1.5 0 0 0 .563.312c.209.063.42.094.633.094.333 0 .607-.06.82-.18a1.18 1.18 0 0 0 .493-.492c.114-.214.171-.453.171-.719z" fill="#4986EE"/><path d="M44.162 28.234c0 10.394-8.262 18.804-18.433 18.804-10.17 0-18.433-8.41-18.433-18.804 0-10.395 8.262-18.804 18.433-18.804s18.433 8.41 18.433 18.804z" stroke="#4986EE"/><path fill-rule="evenodd" clip-rule="evenodd" d="M44.819 49.454c11.267-2.223 19.78-12.325 19.8-24.459v-2h-.075C63.564 10.13 53.014 0 40.144 0c-2.433 0-4.784.362-7.002 1.036.602.167 1.196.354 1.782.559a23.235 23.235 0 0 1 7.945-.435l-.644 4.261c.622.452 1.225.928 1.808 1.427l.81-5.368A23.13 23.13 0 0 1 53.73 5.42l-3.296 4.2a18.049 18.049 0 0 0-6.11-2.518c.522.46 1.027.939 1.515 1.435 7.023 2.261 12.13 8.96 12.13 16.898 0 5.284-2.263 10.02-5.848 13.262a28.32 28.32 0 0 1-.843 1.973 18.545 18.545 0 0 0 2.32-2.006l3.156 3.217a23.58 23.58 0 0 1-5.967 4.429l-1.234-2.517c-.41.645-.846 1.272-1.306 1.88l.728 1.483c-.905.374-1.837.694-2.793.953-.44.463-.895.912-1.364 1.346zm11.196-34.208a18.696 18.696 0 0 0-3.961-4.45l3.245-4.135a23.953 23.953 0 0 1 5.087 6.155l-4.37 2.43zm2.801 7.75A18.853 18.853 0 0 0 57 16.987l4.314-2.4a24.18 24.18 0 0 1 2.228 8.407h-4.725zm.154 2.438c0-.146-.001-.293-.004-.439h4.652a24.411 24.411 0 0 1-.99 6.865l-4.31-1.464a19.08 19.08 0 0 0 .653-4.962zm-4.046 11.723a18.787 18.787 0 0 0 2.773-4.86l4.287 1.457a24.036 24.036 0 0 1-3.889 6.636l-3.17-3.233z" fill="#4986EE"/></symbol><symbol id="icon-cards" viewBox="0 0 77 56" fill="none" xmlns="http://www.w3.org/2000/svg"><path d="M2 24.75V45a9 9 0 0 0 9 9h39.288a9 9 0 0 0 9-9V24.75M2 24.75V22a7 7 0 0 1 7-7h43.288a7 7 0 0 1 7 7v2.75M2 24.75h57.288M8 30h4.873m3.424 0h5.268m3.424 0h5.004" stroke="#4986EE" stroke-width="3"/><path d="M21 8V7a5 5 0 0 1 5-5h44.5a5 5 0 0 1 5 5v29.5a5 5 0 0 1-5 5H64M75.5 8.5h-56m55 6.5h-13" stroke="#4986EE" stroke-width="3"/></symbol><symbol id="icon-checkmark" viewBox="0 0 23 16" fill="none" xmlns="http://www.w3.org/2000/svg"><path fill-rule="evenodd" clip-rule="evenodd" d="M22.293 2.22 8.933 15.58.515 7.164l2.121-2.122 6.295 6.296L20.172.098l2.12 2.121z" fill="#4CD7AB"/></symbol></defs></svg>